# xmcd CD database file
#
# Track frame offsets:
#	150
#	22082
#	43928
#	65603
#
# Disc length: 1083 seconds
#
# Revision: 0
# Processed by: cddbd v1.5.1PL0 Copyright (c) Steve Scherf et al.
# Submitted via: CDex 1.51
#
DISCID=36043904
DTITLE=JET LAG - Floater
DYEAR=1900
DGENRE=Rock
TTITLE0=Floater
TTITLE1=Find A Way
TTITLE2=Wonderful Days
TTITLE3=On Fire
EXTD=
EXTT0=
EXTT1=
EXTT2=
EXTT3=
PLAYORDER=
